<svg xmlns="http://www.w3.org/2000/svg" version="1.1" xmlns:xlink="http://www.w3.org/1999/xlink" xmlns:svgjs="http://svgjs.dev/svgjs" width="1500" height="155" viewBox="0 0 1500 155"><g transform="matrix(1,0,0,1,-0.9090909090909918,10.401068648084049)"><svg viewBox="0 0 396 41" data-background-color="#ffffff" preserveAspectRatio="xMidYMid meet" height="155" width="1500" xmlns="http://www.w3.org/2000/svg" xmlns:xlink="http://www.w3.org/1999/xlink"><g id="tight-bounds" transform="matrix(1,0,0,1,0.2400000000000091,-0.16968762221767975)"><svg viewBox="0 0 395.52 41.33937524443538" height="41.33937524443538" width="395.52"><g><svg viewBox="0 0 577.574893196142 60.36758000000001" height="41.33937524443538" width="395.52"><g><svg viewBox="0 0 577.574893196142 60.36758000000001" height="60.36758000000001" width="577.574893196142"><g id="textblocktransform"><svg viewBox="0 0 577.574893196142 60.36758000000001" height="60.36758000000001" width="577.574893196142" id="textblock"><g><svg viewBox="0 0 577.574893196142 60.36758000000001" height="60.36758000000001" width="577.574893196142"><g><svg><g></g><g></g></svg></g><g><svg><g></g><g><svg></svg></g></svg></g><g id="text-0"><svg viewBox="0 0 577.574893196142 60.36758000000001" height="60.36758000000001" width="577.574893196142"><g transform="matrix(1,0,0,1,0,11.503789999999999)"><svg width="179.10000000000005" viewBox="2.05 -36.45999999577501 179.07999999999998 37.30999999577501" height="37.31000000000001" data-palette-color="#ffffff"><path d="M12.95 0.6L12.95 0.6Q7.8 0.6 4.93-2.68 2.05-5.95 2.05-11.35L2.05-11.35Q2.2-14.8 3.78-17.45 5.35-20.1 7.98-21.63 10.6-23.15 13.8-23.25L13.8-23.25Q15.55-23.25 17.38-22.83 19.2-22.4 20.43-21.28 21.65-20.15 21.65-18.05L21.65-18.05Q21.65-16.6 20.75-15.38 19.85-14.15 18.25-14.15L18.25-14.15Q17.15-14.15 16.55-14.7 15.95-15.25 15.95-15.5L15.95-15.5Q15.95-15.6 16.38-15.93 16.8-16.25 17.2-16.82 17.6-17.4 17.6-18.25L17.6-18.25Q17.6-19.85 16.45-20.6 15.3-21.35 13.85-21.4L13.85-21.4Q11.65-21.4 10.33-20.5 9-19.6 8.3-18.13 7.6-16.65 7.38-14.9 7.15-13.15 7.15-11.5L7.15-11.5Q7.15-8.75 8-6.58 8.85-4.4 10.4-3.15 11.95-1.9 14.1-1.9L14.1-1.9Q16.3-1.9 17.8-2.85 19.3-3.8 20.55-5.65L20.55-5.65Q20.9-6.15 21.6-5.75L21.6-5.75Q21.95-5.55 22.1-5.2 22.25-4.85 22-4.5L22-4.5Q20.35-2.15 17.9-0.78 15.45 0.6 12.95 0.6ZM37.5 0.6L37.5 0.6Q33.65 0.6 31.02-1.05 28.4-2.7 27.1-5.45 25.8-8.2 25.8-11.45L25.8-11.45Q25.8-13.65 26.57-15.73 27.35-17.8 28.8-19.53 30.25-21.25 32.3-22.25 34.35-23.25 36.95-23.25L36.95-23.25Q41.55-23.25 43.87-20.88 46.2-18.5 46.55-14.85L46.55-14.85Q46.55-13.1 45.57-12.55 44.6-12 43.05-12L43.05-12 30.9-12Q30.9-9.1 31.7-6.83 32.5-4.55 34.22-3.23 35.95-1.9 38.8-1.9L38.8-1.9Q40.9-1.9 42.4-2.8 43.9-3.7 45.3-5.95L45.3-5.95Q45.7-6.45 46.4-6L46.4-6Q46.8-5.8 46.9-5.38 47-4.95 46.8-4.65L46.8-4.65Q45.25-2.2 42.9-0.8 40.55 0.6 37.5 0.6ZM30.9-13.9L30.9-13.9 39.05-13.9Q40.25-13.9 40.97-14.38 41.7-14.85 41.75-16L41.75-16Q41.75-18.15 40.57-19.83 39.4-21.5 36.95-21.5L36.95-21.5Q34.45-21.5 32.77-19.5 31.1-17.5 30.9-13.9ZM49.9 0.15L49.9 0.15Q49.55 0.15 49.32-0.18 49.09-0.5 49.09-0.85L49.09-0.85Q49.15-1.6 49.47-1.68 49.8-1.75 50.24-1.75L50.24-1.75Q51.65-1.75 52.17-2.23 52.7-2.7 52.77-3.5 52.84-4.3 52.84-5.15L52.84-5.15 52.84-29.55Q52.84-30.45 52.77-31.23 52.7-32 52.2-32.48 51.7-32.95 50.3-32.95L50.3-32.95Q49.84-32.95 49.47-33.08 49.09-33.2 49.09-33.95L49.09-33.95Q49.09-34.7 49.9-34.85L49.9-34.85Q52.2-35.2 53.42-35.55 54.65-35.9 55.3-36.15 55.95-36.4 56.45-36.45L56.45-36.45Q56.84-36.5 57.12-36.3 57.4-36.1 57.4-35.5L57.4-35.5 57.4-5.15Q57.4-4.3 57.47-3.5 57.55-2.7 58.07-2.23 58.59-1.75 60-1.75L60-1.75Q60.45-1.75 60.77-1.68 61.09-1.6 61.15-0.85L61.15-0.85Q61.15-0.5 60.95-0.18 60.75 0.15 60.34 0.15L60.34 0.15Q58.9 0.05 57.67 0.03 56.45 0 55.09 0L55.09 0Q53.75 0 52.55 0.03 51.34 0.05 49.9 0.15ZM75.64 0.6L75.64 0.6Q71.79 0.6 69.17-1.05 66.54-2.7 65.24-5.45 63.94-8.2 63.94-11.45L63.94-11.45Q63.94-13.65 64.72-15.73 65.49-17.8 66.94-19.53 68.39-21.25 70.44-22.25 72.49-23.25 75.09-23.25L75.09-23.25Q79.69-23.25 82.02-20.88 84.34-18.5 84.69-14.85L84.69-14.85Q84.69-13.1 83.72-12.55 82.74-12 81.19-12L81.19-12 69.04-12Q69.04-9.1 69.84-6.83 70.64-4.55 72.37-3.23 74.09-1.9 76.94-1.9L76.94-1.9Q79.04-1.9 80.54-2.8 82.04-3.7 83.44-5.95L83.44-5.95Q83.84-6.45 84.54-6L84.54-6Q84.94-5.8 85.04-5.38 85.14-4.95 84.94-4.65L84.94-4.65Q83.39-2.2 81.04-0.8 78.69 0.6 75.64 0.6ZM69.04-13.9L69.04-13.9 77.19-13.9Q78.39-13.9 79.12-14.38 79.84-14.85 79.89-16L79.89-16Q79.89-18.15 78.72-19.83 77.54-21.5 75.09-21.5L75.09-21.5Q72.59-21.5 70.92-19.5 69.24-17.5 69.04-13.9ZM97.89 0.6L97.89 0.6Q94.04 0.6 91.47-0.78 88.89-2.15 88.89-4.75L88.89-4.75Q88.89-6.2 89.77-7.1 90.64-8 92.04-8L92.04-8Q92.94-8 93.52-7.53 94.09-7.05 94.09-6.85L94.09-6.85Q94.09-6.7 93.52-6.18 92.94-5.65 92.94-4.5L92.94-4.5Q92.94-3.1 94.27-2.18 95.59-1.25 98.29-1.25L98.29-1.25Q100.64-1.25 101.97-2.27 103.29-3.3 103.29-5.15L103.29-5.15Q103.29-6.65 102.32-7.48 101.34-8.3 99.82-8.8 98.29-9.3 96.57-9.8 94.84-10.3 93.29-11.05 91.74-11.8 90.77-13.13 89.79-14.45 89.79-16.65L89.79-16.65Q89.79-18.9 91.14-20.35 92.49-21.8 94.59-22.53 96.69-23.25 98.84-23.25L98.84-23.25Q100.69-23.25 102.34-22.73 103.99-22.2 105.07-21.15 106.14-20.1 106.14-18.5L106.14-18.5Q106.14-17.25 105.34-16.25 104.54-15.25 103.14-15.25L103.14-15.25Q102.24-15.25 101.67-15.73 101.09-16.2 101.09-16.4L101.09-16.4Q101.09-16.5 101.47-16.78 101.84-17.05 102.19-17.53 102.54-18 102.54-18.75L102.54-18.75Q102.44-20.2 101.14-20.9 99.84-21.6 98.24-21.6L98.24-21.6Q96.49-21.6 94.99-20.75 93.49-19.9 93.49-18.3L93.49-18.3Q93.49-16.85 94.12-16.05 94.74-15.25 96.12-14.68 97.49-14.1 99.69-13.4L99.69-13.4Q101.89-12.7 103.57-11.95 105.24-11.2 106.17-9.98 107.09-8.75 107.09-6.65L107.09-6.65Q107.09-4.55 105.89-2.9 104.69-1.25 102.62-0.33 100.54 0.6 97.89 0.6ZM119.94 0.85L119.94 0.85Q118.44 0.85 117.09 0.1 115.74-0.65 114.86-2.2 113.99-3.75 113.99-6.1L113.99-6.1 113.99-20.8 111.09-20.7Q110.74-20.7 110.56-20.98 110.39-21.25 110.39-21.6L110.39-21.6Q110.39-22.6 111.09-22.75L111.09-22.75Q112.94-23.1 113.89-23.93 114.84-24.75 115.36-25.9 115.89-27.05 116.34-28.4L116.34-28.4Q116.49-28.8 116.79-28.93 117.09-29.05 117.44-29.05L117.44-29.05Q117.74-29.05 118.11-28.9 118.49-28.75 118.49-28.35L118.49-28.35 118.14-22.65 123.99-23Q124.44-23.05 124.59-22.75 124.74-22.45 124.74-22.05L124.74-22.05Q124.74-21.55 124.56-21.05 124.39-20.55 124.14-20.55L124.14-20.55 118.54-20.7 118.54-5.5Q118.54-4.05 119.16-2.85 119.79-1.65 121.44-1.65L121.44-1.65Q121.99-1.65 122.69-1.75 123.39-1.85 124.19-2.2L124.19-2.2Q124.39-2.3 124.59-2.38 124.79-2.45 124.99-2.45L124.99-2.45Q125.39-2.45 125.59-2.13 125.79-1.8 125.94-1.45L125.94-1.45Q126.09-1 125.69-0.75L125.69-0.75Q124.14 0.25 122.84 0.55 121.54 0.85 119.94 0.85ZM130.53 0.15L130.53 0.15Q130.19 0.15 129.96-0.18 129.74-0.5 129.74-0.85L129.74-0.85Q129.84-1.6 130.14-1.68 130.44-1.75 130.94-1.75L130.94-1.75Q132.34-1.75 132.84-2.23 133.34-2.7 133.41-3.5 133.49-4.3 133.49-5.15L133.49-5.15 133.49-16.6Q133.49-17.5 133.41-18.28 133.34-19.05 132.84-19.53 132.34-20 130.94-20L130.94-20Q130.49-20 130.11-20.13 129.74-20.25 129.74-21L129.74-21Q129.74-21.75 130.53-21.9L130.53-21.9Q132.84-22.25 134.06-22.6 135.28-22.95 135.94-23.2 136.59-23.45 137.09-23.5L137.09-23.5Q137.49-23.55 137.76-23.35 138.03-23.15 138.03-22.55L138.03-22.55 138.03-5.15Q138.03-4.3 138.11-3.5 138.19-2.7 138.71-2.23 139.24-1.75 140.64-1.75L140.64-1.75Q141.09-1.75 141.41-1.68 141.74-1.6 141.78-0.85L141.78-0.85Q141.78-0.5 141.59-0.18 141.39 0.15 140.99 0.15L140.99 0.15Q139.53 0.05 138.31 0.03 137.09 0 135.74 0L135.74 0Q134.39 0 133.19 0.03 131.99 0.05 130.53 0.15ZM135.49-29.05L135.49-29.05Q134.09-29.05 133.14-29.93 132.19-30.8 132.19-32.1L132.19-32.1Q132.19-33.25 133.34-34.15 134.49-35.05 135.94-35.05L135.94-35.05Q137.19-35.05 137.99-34.18 138.78-33.3 138.78-31.95L138.78-31.95Q138.78-30.75 137.84-29.9 136.89-29.05 135.49-29.05ZM151.28 0.6L151.28 0.6Q148.23 0.6 146.41-1.15 144.58-2.9 144.58-5.35L144.58-5.35Q144.58-7.9 145.91-9.35 147.23-10.8 149.41-11.5 151.58-12.2 154.16-12.45 156.73-12.7 159.18-12.85L159.18-12.85 159.18-16.8Q159.18-19.15 158.01-20.48 156.83-21.8 154.03-21.8L154.03-21.8Q152.63-21.8 151.41-20.9 150.18-20 150.18-18.3L150.18-18.3Q150.18-17.5 150.58-16.95 150.98-16.4 151.38-16.1 151.78-15.8 151.78-15.7L151.78-15.7Q151.78-15.5 151.21-14.98 150.63-14.45 149.63-14.45L149.63-14.45Q148.08-14.45 147.23-15.6 146.38-16.75 146.38-18.15L146.38-18.15Q146.38-20.05 147.56-21.15 148.73-22.25 150.58-22.75 152.43-23.25 154.33-23.25L154.33-23.25Q156.58-23.25 158.71-22.7 160.83-22.15 162.21-20.6 163.58-19.05 163.58-15.95L163.58-15.95 163.58-4.3Q163.63-3.8 163.83-3.1 164.03-2.4 164.61-1.88 165.18-1.35 166.18-1.35L166.18-1.35Q166.53-1.35 166.73-1.23 166.93-1.1 166.93-0.55L166.93-0.55Q166.93-0.1 166.43 0.15 165.93 0.4 165.28 0.5 164.63 0.6 164.18 0.6L164.18 0.6Q162.33 0.6 160.88-0.48 159.43-1.55 159.18-3.45L159.18-3.45Q158.08-1.45 155.91-0.43 153.73 0.6 151.28 0.6ZM152.88-2.1L152.88-2.1Q154.58-2.1 156.01-2.95 157.43-3.8 158.31-5.28 159.18-6.75 159.18-8.55L159.18-8.55 159.18-11.4Q154.03-11.05 151.83-9.75 149.63-8.45 149.63-5.5L149.63-5.5Q149.63-2.1 152.88-2.1ZM169.88 0.15L169.88 0.15Q169.53 0.15 169.31-0.18 169.08-0.5 169.08-0.85L169.08-0.85Q169.13-1.6 169.46-1.68 169.78-1.75 170.23-1.75L170.23-1.75Q171.63-1.75 172.16-2.23 172.68-2.7 172.76-3.5 172.83-4.3 172.83-5.15L172.83-5.15 172.83-29.55Q172.83-30.45 172.76-31.23 172.68-32 172.18-32.48 171.68-32.95 170.28-32.95L170.28-32.95Q169.83-32.95 169.46-33.08 169.08-33.2 169.08-33.95L169.08-33.95Q169.08-34.7 169.88-34.85L169.88-34.85Q172.18-35.2 173.41-35.55 174.63-35.9 175.28-36.15 175.93-36.4 176.43-36.45L176.43-36.45Q176.83-36.5 177.11-36.3 177.38-36.1 177.38-35.5L177.38-35.5 177.38-5.15Q177.38-4.3 177.46-3.5 177.53-2.7 178.06-2.23 178.58-1.75 179.98-1.75L179.98-1.75Q180.43-1.75 180.76-1.68 181.08-1.6 181.13-0.85L181.13-0.85Q181.13-0.5 180.93-0.18 180.73 0.15 180.33 0.15L180.33 0.15Q178.88 0.05 177.66 0.03 176.43 0 175.08 0L175.08 0Q173.73 0 172.53 0.03 171.33 0.05 169.88 0.15Z" opacity="1" transform="matrix(1,0,0,1,0,0)" fill="#ffffff" class="undefined-yy-0" data-fill-palette-color="primary"></path></svg></g><g><svg xmlns="http://www.w3.org/2000/svg" data-name="Layer 1" viewBox="1.9975410962101616 1 60.00245890378984 60.00000076698173" x="193.35242000000005" y="0" height="60.36758000000001" width="60.370053196141974" class="icon-cg-0" data-fill-palette-color="accent" id="cg-0"><path d="M28 28H24a1 1 0 0 0-1 1v7.43A0.571 0.571 0 0 1 22.43 37h-0.559A3.999 3.999 0 1 0 14 36a3.924 3.924 0 0 0 0.129 1h-0.559A0.571 0.571 0 0 1 13 36.43V29a1 1 0 0 0-1-1H8a1 1 0 0 0-1 1v8a6.01 6.01 0 0 0 5 5.917V60a1 1 0 0 0 1 1H23a1 1 0 0 0 1-1V42.917A6.01 6.01 0 0 0 29 37V29A1 1 0 0 0 28 28Zm-1 9a4.004 4.004 0 0 1-4 4 1 1 0 0 0-1 1V59H19V48H17V59H14V42a1 1 0 0 0-1-1 4.004 4.004 0 0 1-4-4V30h2v6.43A2.573 2.573 0 0 0 13.57 39h2.208a1 1 0 0 0 0.743-1.669 1.995 1.995 0 0 1 1.838-3.301 2.013 2.013 0 0 1 1.595 1.535 1.975 1.975 0 0 1-0.475 1.766A1 1 0 0 0 20.222 39h2.208A2.573 2.573 0 0 0 25 36.43V30h2Z" fill="#333333" data-fill-palette-color="accent"></path><rect x="47" y="24" width="2" height="2" fill="#333333" data-fill-palette-color="accent"></rect><path d="M40 13v2a7.008 7.008 0 0 1 7 7h2A9.01 9.01 0 0 0 40 13Z" fill="#333333" data-fill-palette-color="accent"></path><rect x="43" y="26" width="2" height="2" fill="#333333" data-fill-palette-color="accent"></rect><path d="M45 24a7.008 7.008 0 0 0-7-7v2a5.006 5.006 0 0 1 5 5Z" fill="#333333" data-fill-palette-color="accent"></path><path d="M59.171 35.411A3.961 3.961 0 0 0 60 33a4 4 0 0 0-8 0 3.954 3.954 0 0 0 0.556 2h-0.261a1.507 1.507 0 0 1-1.212-0.603l-3.247-4.946a1.001 1.001 0 0 0-1.391-0.283l-3 2a1 1 0 0 0-0.296 1.357l4.272 6.909A3.51 3.51 0 0 0 50.347 41H51v4.649L47.219 50.375A0.999 0.999 0 0 0 47 51v9a1 1 0 0 0 1 1h4a1 1 0 0 0 1-1V53.5l0.503-0.378 0.517 2.074 1 5A1.001 1.001 0 0 0 56 61a0.978 0.978 0 0 0 0.243-0.03l4-1a0.999 0.999 0 0 0 0.737-1.166l-0.966-4.832 0.976-6.83-0.023-0.004A0.968 0.968 0 0 0 61 47V38.42A3.41 3.41 0 0 0 59.171 35.411ZM56 31a2 2 0 1 1-2 2A2.002 2.002 0 0 1 56 31Zm0.775 27.775l-0.805-4.016-0.73-2.939 3.429-2.572-0.659 4.61a0.994 0.994 0 0 0 0.01 0.338l0.813 4.065ZM59 46.5l-7.6 5.7A0.999 0.999 0 0 0 51 53v6H49V51.351L52.781 46.625A0.999 0.999 0 0 0 53 46V40a1 1 0 0 0-1-1H50.347a1.504 1.504 0 0 1-1.243-0.646L45.359 32.296l1.358-0.905 2.717 4.137A3.528 3.528 0 0 0 52.295 37h5.285A1.422 1.422 0 0 1 59 38.42Z" fill="#333333" data-fill-palette-color="accent"></path><path d="M36.879 10.977a3.849 3.849 0 0 0-2.898-0.962 8.799 8.799 0 0 0-2.607-6.416 9.03 9.03 0 0 0-12.666-0.001L18 4.296l-0.707-0.697a9.032 9.032 0 0 0-12.667 0 8.83 8.83 0 0 0 0 12.572l12.67 12.54a1.001 1.001 0 0 0 1.408 0l10.766-10.654 1.858 1.684a1.001 1.001 0 0 0 1.343 0l4.208-3.814a3.294 3.294 0 0 0 0-4.95ZM18 26.593L6.034 14.749a6.828 6.828 0 0 1 0-9.729 7.024 7.024 0 0 1 9.854 0.001l1.41 1.391a0.999 0.999 0 0 0 1.404 0l1.412-1.391a7.022 7.022 0 0 1 9.852 0A6.799 6.799 0 0 1 31.934 10.7a3.884 3.884 0 0 0-4.813 0.277 3.294 3.294 0 0 0 0 4.95l0.865 0.784ZM35.537 14.444L32 17.65l-3.536-3.206a1.294 1.294 0 0 1 0-1.985 1.913 1.913 0 0 1 2.482 0l0.382 0.347a1 1 0 0 0 1.344 0l0.382-0.347a1.916 1.916 0 0 1 2.482-0.001 1.296 1.296 0 0 1 0.001 1.986Z" fill="#333333" data-fill-palette-color="accent"></path><path d="M26.611 9.209l1.222-1.584a3 3 0 1 0-3.665 4.751l1.221-1.584a1 1 0 1 1 1.222-1.583Z" fill="#333333" data-fill-palette-color="accent"></path><rect x="58" y="1" width="2" height="2" fill="#333333" data-fill-palette-color="accent"></rect><rect x="58" y="5" width="2" height="2" fill="#333333" data-fill-palette-color="accent"></rect><rect x="60" y="3" width="2" height="2" fill="#333333" data-fill-palette-color="accent"></rect><rect x="56" y="3" width="2" height="2" fill="#333333" data-fill-palette-color="accent"></rect></svg></g><g transform="matrix(1,0,0,1,267.97489319614203,11.553790000000003)"><svg width="309.6" viewBox="1.25 -36.41 309.57 37.26" height="37.260000000000005" data-palette-color="#ffc604"><path d="M10.8 0.85L10.8 0.85Q9.3 0.85 7.95 0.1 6.6-0.65 5.73-2.2 4.85-3.75 4.85-6.1L4.85-6.1 4.85-20.8 1.95-20.7Q1.6-20.7 1.43-20.98 1.25-21.25 1.25-21.6L1.25-21.6Q1.25-22.6 1.95-22.75L1.95-22.75Q3.8-23.1 4.75-23.93 5.7-24.75 6.23-25.9 6.75-27.05 7.2-28.4L7.2-28.4Q7.35-28.8 7.65-28.93 7.95-29.05 8.3-29.05L8.3-29.05Q8.6-29.05 8.97-28.9 9.35-28.75 9.35-28.35L9.35-28.35 9-22.65 14.85-23Q15.3-23.05 15.45-22.75 15.6-22.45 15.6-22.05L15.6-22.05Q15.6-21.55 15.43-21.05 15.25-20.55 15-20.55L15-20.55 9.4-20.7 9.4-5.5Q9.4-4.05 10.03-2.85 10.65-1.65 12.3-1.65L12.3-1.65Q12.85-1.65 13.55-1.75 14.25-1.85 15.05-2.2L15.05-2.2Q15.25-2.3 15.45-2.38 15.65-2.45 15.85-2.45L15.85-2.45Q16.25-2.45 16.45-2.13 16.65-1.8 16.8-1.45L16.8-1.45Q16.95-1 16.55-0.75L16.55-0.75Q15 0.25 13.7 0.55 12.4 0.85 10.8 0.85ZM21.4 0.15L21.4 0.15Q21.05 0.15 20.82-0.18 20.6-0.5 20.6-0.85L20.6-0.85Q20.7-1.6 21-1.68 21.3-1.75 21.8-1.75L21.8-1.75Q23.2-1.75 23.7-2.23 24.2-2.7 24.27-3.5 24.35-4.3 24.35-5.15L24.35-5.15 24.35-16.6Q24.35-17.5 24.27-18.28 24.2-19.05 23.7-19.53 23.2-20 21.8-20L21.8-20Q21.35-20 20.97-20.13 20.6-20.25 20.6-21L20.6-21Q20.6-21.75 21.4-21.9L21.4-21.9Q23.7-22.25 24.92-22.6 26.15-22.95 26.77-23.2 27.4-23.45 27.9-23.5L27.9-23.5Q28.3-23.55 28.57-23.35 28.85-23.15 28.85-22.55L28.85-22.55 28.85-19.45 29-19.45Q30.7-21.1 32.5-22.18 34.3-23.25 35.8-23.25L35.8-23.25Q37.55-23.25 38.47-21.95 39.4-20.65 39.4-19.2L39.4-19.2Q39.4-17.95 38.6-16.78 37.8-15.6 36.2-15.6L36.2-15.6Q35.4-15.6 34.92-15.93 34.45-16.25 34.4-16.4L34.4-16.4Q34.4-16.5 34.87-17 35.35-17.5 35.35-18.25L35.35-18.25Q35.35-19.15 34.87-19.7 34.4-20.25 33.6-20.25L33.6-20.25Q32.75-20.25 31.42-19.4 30.1-18.55 28.9-17.35L28.9-17.35 28.9-5.15Q28.9-4.3 28.97-3.5 29.05-2.7 29.57-2.23 30.1-1.75 31.5-1.75L31.5-1.75Q31.95-1.75 32.27-1.68 32.6-1.6 32.65-0.85L32.65-0.85Q32.65-0.5 32.45-0.18 32.25 0.15 31.85 0.15L31.85 0.15Q30.4 0.05 29.17 0.03 27.95 0 26.6 0L26.6 0Q25.25 0 24.05 0.03 22.85 0.05 21.4 0.15ZM52.2 0.6L52.2 0.6Q48.8 0.6 46.8-1.45 44.8-3.5 44.8-6.85L44.8-6.85 44.8-16.1Q44.8-17 44.72-17.78 44.65-18.55 44.15-19.03 43.65-19.5 42.24-19.5L42.24-19.5Q41.8-19.5 41.42-19.63 41.05-19.75 41.05-20.5L41.05-20.5Q41.05-21.25 41.84-21.4L41.84-21.4Q44.15-21.75 45.37-22.1 46.59-22.45 47.25-22.7 47.9-22.95 48.4-23L48.4-23Q48.8-23.05 49.07-22.85 49.34-22.65 49.34-22.05L49.34-22.05 49.34-6.9Q49.34-5.25 50.07-4.2 50.8-3.15 51.9-2.65 53-2.15 54.15-2.15L54.15-2.15Q55.9-2.15 57.2-2.78 58.5-3.4 59.3-4.23 60.09-5.05 60.34-5.6L60.34-5.6 60.34-16.1Q60.34-17 60.27-17.78 60.2-18.55 59.7-19.03 59.2-19.5 57.8-19.5L57.8-19.5Q57.34-19.5 56.97-19.63 56.59-19.75 56.59-20.5L56.59-20.5Q56.59-21.25 57.39-21.4L57.39-21.4Q59.7-21.75 60.92-22.1 62.15-22.45 62.8-22.7 63.45-22.95 63.95-23L63.95-23Q64.34-23.05 64.62-22.85 64.9-22.65 64.9-22.05L64.9-22.05 64.9-4.75Q64.9-1.8 68.84-1.8L68.84-1.8Q69.4-1.8 69.55-1.5 69.69-1.2 69.69-0.85L69.69-0.85Q69.69-0.15 68.84 0L68.84 0 60.8 0.55Q60.45 0.55 60.4 0.25 60.34-0.05 60.34-0.45L60.34-0.45 60.34-3.25 60.25-3.25Q59.3-2.35 58.22-1.45 57.14-0.55 55.72 0.03 54.3 0.6 52.2 0.6ZM80.89 0.6L80.89 0.6Q77.04 0.6 74.47-0.78 71.89-2.15 71.89-4.75L71.89-4.75Q71.89-6.2 72.77-7.1 73.64-8 75.04-8L75.04-8Q75.94-8 76.52-7.53 77.09-7.05 77.09-6.85L77.09-6.85Q77.09-6.7 76.52-6.18 75.94-5.65 75.94-4.5L75.94-4.5Q75.94-3.1 77.27-2.18 78.59-1.25 81.29-1.25L81.29-1.25Q83.64-1.25 84.97-2.27 86.29-3.3 86.29-5.15L86.29-5.15Q86.29-6.65 85.32-7.48 84.34-8.3 82.82-8.8 81.29-9.3 79.57-9.8 77.84-10.3 76.29-11.05 74.74-11.8 73.77-13.13 72.79-14.45 72.79-16.65L72.79-16.65Q72.79-18.9 74.14-20.35 75.49-21.8 77.59-22.53 79.69-23.25 81.84-23.25L81.84-23.25Q83.69-23.25 85.34-22.73 86.99-22.2 88.07-21.15 89.14-20.1 89.14-18.5L89.14-18.5Q89.14-17.25 88.34-16.25 87.54-15.25 86.14-15.25L86.14-15.25Q85.24-15.25 84.67-15.73 84.09-16.2 84.09-16.4L84.09-16.4Q84.09-16.5 84.47-16.78 84.84-17.05 85.19-17.53 85.54-18 85.54-18.75L85.54-18.75Q85.44-20.2 84.14-20.9 82.84-21.6 81.24-21.6L81.24-21.6Q79.49-21.6 77.99-20.75 76.49-19.9 76.49-18.3L76.49-18.3Q76.49-16.85 77.12-16.05 77.74-15.25 79.12-14.68 80.49-14.1 82.69-13.4L82.69-13.4Q84.89-12.7 86.57-11.95 88.24-11.2 89.17-9.98 90.09-8.75 90.09-6.65L90.09-6.65Q90.09-4.55 88.89-2.9 87.69-1.25 85.62-0.33 83.54 0.6 80.89 0.6ZM102.94 0.85L102.94 0.85Q101.44 0.85 100.09 0.1 98.74-0.65 97.87-2.2 96.99-3.75 96.99-6.1L96.99-6.1 96.99-20.8 94.09-20.7Q93.74-20.7 93.57-20.98 93.39-21.25 93.39-21.6L93.39-21.6Q93.39-22.6 94.09-22.75L94.09-22.75Q95.94-23.1 96.89-23.93 97.84-24.75 98.37-25.9 98.89-27.05 99.34-28.4L99.34-28.4Q99.49-28.8 99.79-28.93 100.09-29.05 100.44-29.05L100.44-29.05Q100.74-29.05 101.12-28.9 101.49-28.75 101.49-28.35L101.49-28.35 101.14-22.65 106.99-23Q107.44-23.05 107.59-22.75 107.74-22.45 107.74-22.05L107.74-22.05Q107.74-21.55 107.57-21.05 107.39-20.55 107.14-20.55L107.14-20.55 101.54-20.7 101.54-5.5Q101.54-4.05 102.17-2.85 102.79-1.65 104.44-1.65L104.44-1.65Q104.99-1.65 105.69-1.75 106.39-1.85 107.19-2.2L107.19-2.2Q107.39-2.3 107.59-2.38 107.79-2.45 107.99-2.45L107.99-2.45Q108.39-2.45 108.59-2.13 108.79-1.8 108.94-1.45L108.94-1.45Q109.09-1 108.69-0.75L108.69-0.75Q107.14 0.25 105.84 0.55 104.54 0.85 102.94 0.85ZM124.69 0.15L124.69 0.15Q124.34 0.15 124.11-0.18 123.89-0.5 123.89-0.85L123.89-0.85Q123.99-1.6 124.29-1.68 124.59-1.75 125.09-1.75L125.09-1.75Q126.49-1.75 126.99-2.23 127.49-2.7 127.56-3.5 127.64-4.3 127.64-5.15L127.64-5.15 127.64-16.6Q127.64-17.5 127.56-18.28 127.49-19.05 126.99-19.53 126.49-20 125.09-20L125.09-20Q124.64-20 124.26-20.13 123.89-20.25 123.89-21L123.89-21Q123.89-21.75 124.69-21.9L124.69-21.9Q126.99-22.25 128.21-22.6 129.44-22.95 130.06-23.2 130.69-23.45 131.19-23.5L131.19-23.5Q131.59-23.55 131.86-23.35 132.14-23.15 132.14-22.55L132.14-22.55 132.14-19.4 132.29-19.4Q133.29-20.35 134.34-21.23 135.39-22.1 136.81-22.68 138.24-23.25 140.34-23.25L140.34-23.25Q143.74-23.25 145.74-21.2 147.74-19.15 147.74-15.8L147.74-15.8 147.74-5.15Q147.74-4.3 147.81-3.5 147.89-2.7 148.41-2.23 148.94-1.75 150.34-1.75L150.34-1.75Q150.79-1.75 151.11-1.68 151.44-1.6 151.49-0.85L151.49-0.85Q151.49-0.5 151.29-0.18 151.09 0.15 150.69 0.15L150.69 0.15Q149.24 0.05 148.01 0.03 146.79 0 145.44 0L145.44 0Q144.09 0 142.89 0.03 141.69 0.05 140.24 0.15L140.24 0.15Q139.89 0.15 139.66-0.18 139.44-0.5 139.44-0.85L139.44-0.85Q139.49-1.6 139.81-1.68 140.14-1.75 140.59-1.75L140.59-1.75Q141.99-1.75 142.51-2.23 143.04-2.7 143.11-3.5 143.19-4.3 143.19-5.15L143.19-5.15 143.19-15.75Q143.19-17.4 142.46-18.45 141.74-19.5 140.64-20 139.54-20.5 138.39-20.5L138.39-20.5Q136.69-20.5 135.39-19.88 134.09-19.25 133.29-18.45 132.49-17.65 132.19-17.05L132.19-17.05 132.19-5.15Q132.19-4.3 132.26-3.5 132.34-2.7 132.86-2.23 133.39-1.75 134.79-1.75L134.79-1.75Q135.24-1.75 135.56-1.68 135.89-1.6 135.94-0.85L135.94-0.85Q135.94-0.5 135.74-0.18 135.54 0.15 135.14 0.15L135.14 0.15Q133.69 0.05 132.46 0.03 131.24 0 129.89 0L129.89 0Q128.54 0 127.34 0.03 126.14 0.05 124.69 0.15ZM165.73 0.6L165.73 0.6Q161.88 0.6 159.26-1.05 156.63-2.7 155.33-5.45 154.03-8.2 154.03-11.45L154.03-11.45Q154.03-13.65 154.81-15.73 155.58-17.8 157.03-19.53 158.48-21.25 160.53-22.25 162.58-23.25 165.18-23.25L165.18-23.25Q169.78-23.25 172.11-20.88 174.43-18.5 174.78-14.85L174.78-14.85Q174.78-13.1 173.81-12.55 172.83-12 171.28-12L171.28-12 159.13-12Q159.13-9.1 159.93-6.83 160.73-4.55 162.46-3.23 164.18-1.9 167.03-1.9L167.03-1.9Q169.13-1.9 170.63-2.8 172.13-3.7 173.53-5.95L173.53-5.95Q173.93-6.45 174.63-6L174.63-6Q175.03-5.8 175.13-5.38 175.23-4.95 175.03-4.65L175.03-4.65Q173.48-2.2 171.13-0.8 168.78 0.6 165.73 0.6ZM159.13-13.9L159.13-13.9 167.28-13.9Q168.48-13.9 169.21-14.38 169.93-14.85 169.98-16L169.98-16Q169.98-18.15 168.81-19.83 167.63-21.5 165.18-21.5L165.18-21.5Q162.68-21.5 161.01-19.5 159.33-17.5 159.13-13.9ZM187.88 0.85L187.88 0.85Q186.38 0.85 185.03 0.1 183.68-0.65 182.81-2.2 181.93-3.75 181.93-6.1L181.93-6.1 181.93-20.8 179.03-20.7Q178.68-20.7 178.51-20.98 178.33-21.25 178.33-21.6L178.33-21.6Q178.33-22.6 179.03-22.75L179.03-22.75Q180.88-23.1 181.83-23.93 182.78-24.75 183.31-25.9 183.83-27.05 184.28-28.4L184.28-28.4Q184.43-28.8 184.73-28.93 185.03-29.05 185.38-29.05L185.38-29.05Q185.68-29.05 186.06-28.9 186.43-28.75 186.43-28.35L186.43-28.35 186.08-22.65 191.93-23Q192.38-23.05 192.53-22.75 192.68-22.45 192.68-22.05L192.68-22.05Q192.68-21.55 192.51-21.05 192.33-20.55 192.08-20.55L192.08-20.55 186.48-20.7 186.48-5.5Q186.48-4.05 187.11-2.85 187.73-1.65 189.38-1.65L189.38-1.65Q189.93-1.65 190.63-1.75 191.33-1.85 192.13-2.2L192.13-2.2Q192.33-2.3 192.53-2.38 192.73-2.45 192.93-2.45L192.93-2.45Q193.33-2.45 193.53-2.13 193.73-1.8 193.88-1.45L193.88-1.45Q194.03-1 193.63-0.75L193.63-0.75Q192.08 0.25 190.78 0.55 189.48 0.85 187.88 0.85ZM210.73 0.5L207.78 0.5 201.38-17.25Q200.58-19.1 199.83-19.88 199.08-20.65 197.58-20.85L197.58-20.85Q196.93-20.95 196.7-21.05 196.48-21.15 196.43-21.8L196.43-21.8Q196.38-22.65 196.9-22.73 197.43-22.8 198.18-22.85L198.18-22.85Q201.28-23 203.03-21.95 204.78-20.9 205.88-18.4L205.88-18.4 210.48-5.45 210.63-5.45Q211.13-7.05 211.83-9.47 212.53-11.9 213.25-14.5 213.98-17.1 214.58-19.33 215.18-21.55 215.48-22.65L215.48-22.65 217.88-22.65 224.73-5.45 224.88-5.45Q225.58-7.55 226.23-10.08 226.88-12.6 227.43-14.93 227.98-17.25 228.38-18.75L228.38-18.75Q228.68-20.1 228.28-20.5 227.88-20.9 226.48-20.9L226.48-20.9Q226.03-20.9 225.73-20.98 225.43-21.05 225.38-21.8L225.38-21.8Q225.38-22.1 225.55-22.45 225.73-22.8 226.08-22.8L226.08-22.8Q227.53-22.75 228.6-22.7 229.68-22.65 230.98-22.65L230.98-22.65Q232.28-22.65 233-22.7 233.73-22.75 235.18-22.8L235.18-22.8Q235.58-22.8 235.75-22.45 235.93-22.1 235.93-21.8L235.93-21.8Q235.88-21.05 235.55-20.98 235.23-20.9 234.83-20.9L234.83-20.9Q233.03-20.9 232-20.3 230.98-19.7 230.53-17.95L230.53-17.95 224.98 0.5 222.03 0.5 215.68-15.85 210.73 0.5ZM248.13 0.6L248.13 0.6Q244.63 0.6 242-1.05 239.38-2.7 237.93-5.35 236.48-8 236.48-11L236.48-11Q236.48-13.95 237.53-16.25 238.58-18.55 240.3-20.1 242.03-21.65 244.08-22.45 246.13-23.25 248.13-23.25L248.13-23.25Q251.63-23.25 254.25-21.6 256.88-19.95 258.33-17.3 259.78-14.65 259.78-11.65L259.78-11.65Q259.78-8.7 258.7-6.4 257.63-4.1 255.9-2.55 254.18-1 252.13-0.2 250.08 0.6 248.13 0.6ZM248.13-1.25L248.13-1.25Q250.58-1.25 252-2.7 253.43-4.15 254.05-6.53 254.68-8.9 254.68-11.65L254.68-11.65Q254.68-14.3 254.03-16.5 253.38-18.7 251.93-20.05 250.48-21.4 248.13-21.4L248.13-21.4Q245.68-21.4 244.23-19.98 242.78-18.55 242.18-16.23 241.58-13.9 241.58-11.1L241.58-11.1Q241.58-8.5 242.2-6.25 242.83-4 244.28-2.63 245.73-1.25 248.13-1.25ZM263.97 0.15L263.97 0.15Q263.62 0.15 263.4-0.18 263.17-0.5 263.17-0.85L263.17-0.85Q263.27-1.6 263.57-1.68 263.87-1.75 264.37-1.75L264.37-1.75Q265.77-1.75 266.27-2.23 266.77-2.7 266.85-3.5 266.92-4.3 266.92-5.15L266.92-5.15 266.92-16.6Q266.92-17.5 266.85-18.28 266.77-19.05 266.27-19.53 265.77-20 264.37-20L264.37-20Q263.92-20 263.55-20.13 263.17-20.25 263.17-21L263.17-21Q263.17-21.75 263.97-21.9L263.97-21.9Q266.27-22.25 267.5-22.6 268.72-22.95 269.35-23.2 269.97-23.45 270.47-23.5L270.47-23.5Q270.87-23.55 271.15-23.35 271.42-23.15 271.42-22.55L271.42-22.55 271.42-19.45 271.57-19.45Q273.27-21.1 275.07-22.18 276.87-23.25 278.37-23.25L278.37-23.25Q280.12-23.25 281.05-21.95 281.97-20.65 281.97-19.2L281.97-19.2Q281.97-17.95 281.17-16.78 280.37-15.6 278.77-15.6L278.77-15.6Q277.97-15.6 277.5-15.93 277.02-16.25 276.97-16.4L276.97-16.4Q276.97-16.5 277.45-17 277.92-17.5 277.92-18.25L277.92-18.25Q277.92-19.15 277.45-19.7 276.97-20.25 276.17-20.25L276.17-20.25Q275.32-20.25 274-19.4 272.67-18.55 271.47-17.35L271.47-17.35 271.47-5.15Q271.47-4.3 271.55-3.5 271.62-2.7 272.15-2.23 272.67-1.75 274.07-1.75L274.07-1.75Q274.52-1.75 274.85-1.68 275.17-1.6 275.22-0.85L275.22-0.85Q275.22-0.5 275.02-0.18 274.82 0.15 274.42 0.15L274.42 0.15Q272.97 0.05 271.75 0.03 270.52 0 269.17 0L269.17 0Q267.82 0 266.62 0.03 265.42 0.05 263.97 0.15ZM284.37 0.15L284.37 0.15Q283.97 0.15 283.77-0.18 283.57-0.5 283.57-0.85L283.57-0.85Q283.62-1.6 283.94-1.68 284.27-1.75 284.72-1.75L284.72-1.75Q286.12-1.75 286.65-2.23 287.17-2.7 287.25-3.5 287.32-4.3 287.32-5.15L287.32-5.15 287.32-29.5Q287.32-30.4 287.25-31.18 287.17-31.95 286.67-32.43 286.17-32.9 284.77-32.9L284.77-32.9Q284.32-32.9 283.94-33.02 283.57-33.15 283.57-33.9L283.57-33.9Q283.57-34.65 284.37-34.8L284.37-34.8Q286.67-35.15 287.9-35.5 289.12-35.85 289.77-36.1 290.42-36.35 290.92-36.4L290.92-36.4Q291.32-36.45 291.6-36.25 291.87-36.05 291.87-35.45L291.87-35.45 291.87-12.6Q294.07-13.05 295.47-14.45L295.47-14.45 299.67-18.75Q299.97-19.1 300.35-19.5 300.72-19.9 300.8-20.25 300.87-20.6 300.37-20.8 299.87-21 298.47-20.9L298.47-20.9Q297.92-21 297.87-21.8L297.87-21.8Q297.87-22.2 298.1-22.5 298.32-22.8 298.67-22.8L298.67-22.8Q299.82-22.75 301.44-22.7 303.07-22.65 304.17-22.65L304.17-22.65Q305.02-22.65 305.85-22.7 306.67-22.75 307.52-22.8L307.52-22.8Q307.92-22.8 308.12-22.5 308.32-22.2 308.32-21.8L308.32-21.8Q308.27-21.15 308.05-21.03 307.82-20.9 307.47-20.9L307.47-20.9Q305.52-20.9 304.32-20.2 303.12-19.5 301.62-17.95L301.62-17.95 297.42-13.65Q298.02-12.85 299.02-11.7 300.02-10.55 301.15-9.28 302.27-8 303.27-6.88 304.27-5.75 304.87-5.05L304.87-5.05Q306.32-3.5 307.3-2.68 308.27-1.85 309.72-1.75L309.72-1.75Q310.12-1.7 310.47-1.63 310.82-1.55 310.82-0.85L310.82-0.85Q310.82-0.5 310.65-0.18 310.47 0.15 310.02 0.15L310.02 0.15Q309.32 0.1 308.87 0.08 308.42 0.05 307.87 0.03 307.32 0 306.3 0 305.27 0 303.37 0L303.37 0Q301.62-1.9 299.35-4.55 297.07-7.2 294.82-9.8L294.82-9.8Q294.32-10.35 293.55-10.83 292.77-11.3 291.87-11.2L291.87-11.2 291.87-5.15Q291.87-4.3 291.94-3.5 292.02-2.7 292.55-2.23 293.07-1.75 294.42-1.75L294.42-1.75Q294.92-1.75 295.25-1.68 295.57-1.6 295.62-0.85L295.62-0.85Q295.62-0.5 295.42-0.18 295.22 0.15 294.82 0.15L294.82 0.15Q293.37 0.05 292.12 0.03 290.87 0 289.57 0L289.57 0Q288.22 0 287.02 0.03 285.82 0.05 284.37 0.15Z" opacity="1" transform="matrix(1,0,0,1,0,0)" fill="#ffc604" class="undefined-yy-1" data-fill-palette-color="secondary"></path></svg></g></svg></g></svg></g></svg></g></svg></g></svg></g><defs></defs></svg><rect width="395.52" height="41.33937524443538" fill="none" stroke="none" visibility="hidden"></rect></g></svg></g></svg>